<svg id="Camada_1" data-name="Camada 1" xmlns="http://www.w3.org/2000/svg" viewBox="0 0 191.65 487"><defs><style>.cls-1{fill:#fff;}</style></defs><title>Cabeça do jumento</title><path class="cls-1" d="M213.23,487V0H404.87V487ZM295.87,11.23c-1.64,1.1-3.07,2-4.44,3-.75.54-1.37,1.24-2.06,1.85-2.78,2.48-5.42,5.14-8.4,7.37-1.89,1.42-4.56,1.87-6.41,3.33-4.48,3.52-9.24,6.92-12.85,11.2-4.2,5-8.18,10.45-10.63,16.34-2.88,6.93-4.17,14.5-5.85,21.85-2,8.59-4.31,17.18-5.13,25.89a57.27,57.27,0,0,0,1.8,19.52c1.77,6.77,5.33,13.1,8,19.65.92,2.21,2.5,4.56,2.33,6.73-.43,5.33-1.69,10.6-2.64,15.88-1.27,7.1-2.84,14.13.57,21.22,1.35,2.81,3,6.54,2.16,9.07-2,5.81-5.21,11.31-8.48,16.62-4,6.49-4.16,13.83,1.26,17.8,4.14,3,2.43,6,1.54,9.23-.81,3-2.36,6-2.28,8.95.22,8.4,1.34,16.77,1.64,25.17.2,5.24,1.11,10.08,4.53,14.22,5.8,7,8.06,15,8.3,23.95.1,3.7,1.34,8.05,3.67,10.84,3.37,4,5.73,8.06,6,13.14.28,6.16.37,12.34.44,18.51.06,5.66-1.53,11.84.31,16.86,3.22,8.74,8.48,16.77,13,25a5.57,5.57,0,0,0,2.64,2.39c13.38,5,26.85,6.52,40.3.29a9.27,9.27,0,0,0,3.82-3.55c2.72-4.64,4.88-9.6,7.74-14.14,4.33-6.85,8.09-13.76,6.62-22.13-1.06-6-3.21-12-1.52-18.2,1.23-4.55,1.42-9.72,3.87-13.52,3.44-5.32,6.33-10.36,6.77-16.79.56-8.3,2-16.26,8.39-22.93,2.67-2.77,3.69-7.57,4.26-11.6,1.21-8.71,1.82-17.5,2.29-26.28.13-2.52-.94-5.14-1.7-7.63-.52-1.71-2-3.26-2.1-4.94-.12-2,.05-4.93,1.36-6,5-4,7.14-11.62,3.92-17.33a174.52,174.52,0,0,0-9.32-15.57c-2-2.8-1.74-4.92-.61-7.78,1.69-4.3,4.1-8.86,3.9-13.21-.37-7.94-2.52-15.78-3.71-23.7a21,21,0,0,1,0-7.91c.81-3.34,2.67-6.43,3.79-9.71,2.3-6.74,4.62-13.47,6.53-20.31,3.23-11.52-.19-22.74-2.47-33.9-1.27-6.24-3.59-12.31-5.72-18.36-1.94-5.49-3.18-11.68-6.69-16.08-5.54-6.94-12.52-12.88-19.3-18.79-3.73-3.25-8.5-5.38-12.46-8.43-2.86-2.19-5.16-5.05-8.09-8-1.11,4.75-3.16,5.16-5.95,2.48s-5-2.71-7.44.29a16.81,16.81,0,0,1-3.15,2.32Z" transform="translate(-213.23)"/><path d="M295.87,11.23l2.35,4.25a16.81,16.81,0,0,0,3.15-2.32c2.43-3,4.78-2.84,7.44-.29s4.84,2.27,5.95-2.48c2.93,2.93,5.23,5.79,8.09,8,4,3.05,8.73,5.18,12.46,8.43,6.78,5.91,13.76,11.85,19.3,18.79,3.51,4.4,4.75,10.59,6.69,16.08,2.13,6,4.45,12.12,5.72,18.36,2.28,11.16,5.7,22.38,2.47,33.9-1.91,6.84-4.23,13.57-6.53,20.31-1.12,3.28-3,6.37-3.79,9.71a21,21,0,0,0,0,7.91c1.19,7.92,3.34,15.76,3.71,23.7.2,4.35-2.21,8.91-3.9,13.21-1.13,2.86-1.38,5,.61,7.78a174.52,174.52,0,0,1,9.32,15.57c3.22,5.71,1.11,13.28-3.92,17.33-1.31,1.05-1.48,4-1.36,6,.09,1.68,1.58,3.23,2.1,4.94.76,2.49,1.83,5.11,1.7,7.63-.47,8.78-1.08,17.57-2.29,26.28-.57,4-1.59,8.83-4.26,11.6-6.42,6.67-7.83,14.63-8.39,22.93-.44,6.43-3.33,11.47-6.77,16.79-2.45,3.8-2.64,9-3.87,13.52-1.69,6.24.46,12.17,1.52,18.2,1.47,8.37-2.29,15.28-6.62,22.13-2.86,4.54-5,9.5-7.74,14.14a9.27,9.27,0,0,1-3.82,3.55c-13.45,6.23-26.92,4.7-40.3-.29a5.57,5.57,0,0,1-2.64-2.39c-4.51-8.27-9.77-16.3-13-25-1.84-5-.25-11.2-.31-16.86-.07-6.17-.16-12.35-.44-18.51-.23-5.08-2.59-9.12-6-13.14-2.33-2.79-3.57-7.14-3.67-10.84-.24-8.93-2.5-16.93-8.3-23.95-3.42-4.14-4.33-9-4.53-14.22-.3-8.4-1.42-16.77-1.64-25.17-.08-3,1.47-6,2.28-8.95.89-3.27,2.6-6.19-1.54-9.23-5.42-4-5.25-11.31-1.26-17.8,3.27-5.31,6.47-10.81,8.48-16.62.88-2.53-.81-6.26-2.16-9.07-3.41-7.09-1.84-14.12-.57-21.22,1-5.28,2.21-10.55,2.64-15.88.17-2.17-1.41-4.52-2.33-6.73-2.72-6.55-6.28-12.88-8-19.65a57.27,57.27,0,0,1-1.8-19.52c.82-8.71,3.17-17.3,5.13-25.89,1.68-7.35,3-14.92,5.85-21.85,2.45-5.89,6.43-11.38,10.63-16.34,3.61-4.28,8.37-7.68,12.85-11.2,1.85-1.46,4.52-1.91,6.41-3.33,3-2.23,5.62-4.89,8.4-7.37.69-.61,1.31-1.31,2.06-1.85C292.8,13.23,294.23,12.33,295.87,11.23Zm1.51,141.94c-4.63-9.35-4.64-10-4.42-20.95a141,141,0,0,0-.64-14.81c-.39-4.71-2.43-9.65-1.52-14,3.51-16.94,2.44-33.55-1.18-50.3-1-4.59-1.31-9.84,4.45-13.17,1.4-.82,7.55-2.79,2.15-6.75a4.6,4.6,0,0,0,1-.83c1.41-2.16-.15-7.65-2.63-8.67-1.35-.56-3.2-1.19-4.38-.72-3.19,1.26-6.1,3.18-9.21,4.67-8.29,4-13.85,10.86-19.58,17.44a30.59,30.59,0,0,0-5.6,10.07c-2.22,6.55-3.69,13.34-5.56,20-1.65,5.87-4.58,11.66-4.85,17.57-.39,8.27-1.87,16.76,1.38,25,2.58,6.52,4.37,13.32,6.85,19.88,2.24,5.94,3.19,11.85,1.84,18.13-1.26,5.9-2.25,11.86-3.18,17.81-1,6.21,2.26,11.38,4.62,16.78a7.55,7.55,0,0,1,.59,5c-.77,2.28-2.49,4.24-3.65,6.41-.86,1.61-1,4.18-2.3,4.85-4.55,2.39-4.61,6.76-5.75,10.63-.36,1.23-.19,3.35.62,4s2.8.12,4.26,0c1.89-.16,4.57-1.32,5.54-.51,4.48,3.74,9.11,7.58,12.44,12.23,2.22,3.1,2.4,7.6,3.36,11.5a38.33,38.33,0,0,1,.62,4.81,18,18,0,0,1-5.52-4c-1.19-1.08-2.87-3-3.82-2.77-5.42,1.45-8.37-.68-10-5.43,0-.14-.57-.11-.49-.1-4.45,4.23-4.26,9.42-3.8,14.7.63,7.3,1,14.63,1.88,21.91.41,3.51.59,7.75,2.69,10.2,4.86,5.68,8,11.41,8.6,19,.5,6.75,1.36,13.64,6.74,19.26,4.85,5.08,2.79,12.52,5.05,18.53,2.15,5.74-.25,11.12-1.65,16a15.79,15.79,0,0,0,1.58,13.4c3.2,5.69,6,11.59,9.31,17.21,1.53,2.6,3.35,5.75,5.89,6.93,11.25,5.24,22.78,4.26,34.1-.17A6.31,6.31,0,0,0,326,391c4-7,8.2-13.91,11.52-21.21,1.91-4.18,3.74-8.59,1.45-13.81-1.79-4.06-2-8.91-2.19-13.44-.14-2.59,1.45-5.22,1.52-7.86a22.48,22.48,0,0,1,6.55-16c1.65-1.68,2.42-4.52,2.84-6.95.92-5.4,1.3-10.89,2-16.33a6,6,0,0,1,1.4-2.53c6-7.72,11.29-15.64,9.76-26-.23-1.56.59-3.24.65-4.87.29-8.48,2.43-17.16-2.52-25.63-.85.87-1.81,1.39-2,2.09-.94,4-3.31,4.85-7.32,4.06-1.51-.3-3.64,1.15-5.1,2.27a37.86,37.86,0,0,0-4.52,4.77l-1.56-.44c.73-4.65,1-9.47,2.39-13.91.9-2.78,3.52-5.07,5.53-7.45a62.47,62.47,0,0,1,5.31-5.49c2.42-2.23,5.2-3,8.48-1.63a34.25,34.25,0,0,0,4.33,1.25c.18-1.84,1.09-4,.43-5.45-2.18-4.88-4.95-9.52-7.46-14.26-.89-1.7-1.23-3.93-2.58-5.09-3.08-2.66-1.88-4.88-.65-7.92a42.41,42.41,0,0,0,3.48-13.72,41.62,41.62,0,0,0-2-15.83c-3.53-9.7-.59-18.08,3.17-26.82S365.89,115,365.32,105c-.45-8-.74-15.83-3.4-23.58-2.53-7.38-3.68-15.19-5.84-22.7-5.23-18.09-20-27.49-35.72-35.79-1.16-.61-3.89.21-5.09,1.25-4.22,3.62-3.38,12.27,1.31,15.63,3.32,2.38,5.53,5.07,4.77,9.47-.88,5.06-1,10.27-2.1,15.28-2.37,10.9-1.37,21.75-.45,32.67a149.74,149.74,0,0,1,0,17c-.08,3-.77,6-.92,9-.43,9.29,1.7,18.77-3.22,27.69-1.12,2-1.59,2.57-3.89,2.4C306.5,153,302.14,153.17,297.38,153.17ZM299,148c2.92,0,4.47-.14,6,0,6.22.65,8.09-.94,8.08-7.19s-.14-12.36-.15-18.54a34.85,34.85,0,0,1,.47-4.43c.53-4.26,1.64-8.53,1.51-12.76-.19-6.33-1.5-12.62-1.86-19a99.29,99.29,0,0,1,.17-16.27c.78-7.29,2.59-14.48,3.38-21.77.47-4.37-7.7-10.21-12.26-9.32-7.71,1.51-10.74,5-10,12.51.66,7,2.34,13.94,2.73,20.95a196.82,196.82,0,0,1-.44,21.44c-.28,5.08-1.92,10.22-1.42,15.18.79,7.66,3.12,15.1,2.72,23C297.58,137.25,298.55,142.71,299,148Z" transform="translate(-213.23)"/><path class="cls-1" d="M297.38,153.17c4.76,0,9.12-.22,13.43.09,2.3.17,2.77-.37,3.89-2.4,4.92-8.92,2.79-18.4,3.22-27.69.15-3,.84-6,.92-9a149.74,149.74,0,0,0,0-17c-.92-10.92-1.92-21.77.45-32.67,1.09-5,1.22-10.22,2.1-15.28.76-4.4-1.45-7.09-4.77-9.47-4.69-3.36-5.53-12-1.31-15.63,1.2-1,3.93-1.86,5.09-1.25,15.73,8.3,30.49,17.7,35.72,35.79,2.16,7.51,3.31,15.32,5.84,22.7,2.66,7.75,2.95,15.57,3.4,23.58.57,9.95-2.52,18.89-6.31,27.68s-6.7,17.12-3.17,26.82a41.62,41.62,0,0,1,2,15.83,42.41,42.41,0,0,1-3.48,13.72c-1.23,3-2.43,5.26.65,7.92,1.35,1.16,1.69,3.39,2.58,5.09,2.51,4.74,5.28,9.38,7.46,14.26.66,1.48-.25,3.61-.43,5.45a34.25,34.25,0,0,1-4.33-1.25c-3.28-1.41-6.06-.6-8.48,1.63a62.47,62.47,0,0,0-5.31,5.49c-2,2.38-4.63,4.67-5.53,7.45-1.43,4.44-1.66,9.26-2.39,13.91l1.56.44a37.86,37.86,0,0,1,4.52-4.77c1.46-1.12,3.59-2.57,5.1-2.27,4,.79,6.38,0,7.32-4.06.17-.7,1.13-1.22,2-2.09,4.95,8.47,2.81,17.15,2.52,25.63-.06,1.63-.88,3.31-.65,4.87,1.53,10.41-3.79,18.33-9.76,26a6,6,0,0,0-1.4,2.53c-.74,5.44-1.12,10.93-2,16.33-.42,2.43-1.19,5.27-2.84,6.95a22.48,22.48,0,0,0-6.55,16c-.07,2.64-1.66,5.27-1.52,7.86.23,4.53.4,9.38,2.19,13.44,2.29,5.22.46,9.63-1.45,13.81C334.19,377.08,330,384,326,391a6.31,6.31,0,0,1-2.79,2.74c-11.32,4.43-22.85,5.41-34.1.17-2.54-1.18-4.36-4.33-5.89-6.93-3.3-5.62-6.11-11.52-9.31-17.21a15.79,15.79,0,0,1-1.58-13.4c1.4-4.86,3.8-10.24,1.65-16-2.26-6-.2-13.45-5.05-18.53-5.38-5.62-6.24-12.51-6.74-19.26-.56-7.59-3.74-13.32-8.6-19-2.1-2.45-2.28-6.69-2.69-10.2-.85-7.28-1.25-14.61-1.88-21.91-.46-5.28-.65-10.47,3.8-14.7-.08,0,.45,0,.49.1,1.64,4.75,4.59,6.88,10,5.43.95-.25,2.63,1.69,3.82,2.77a18,18,0,0,0,5.52,4,38.33,38.33,0,0,0-.62-4.81c-1-3.9-1.14-8.4-3.36-11.5-3.33-4.65-8-8.49-12.44-12.23-1-.81-3.65.35-5.54.51-1.46.13-3.38.68-4.26,0s-1-2.74-.62-4c1.14-3.87,1.2-8.24,5.75-10.63,1.29-.67,1.44-3.24,2.3-4.85,1.16-2.17,2.88-4.13,3.65-6.41a7.55,7.55,0,0,0-.59-5c-2.36-5.4-5.6-10.57-4.62-16.78.93-5.95,1.92-11.91,3.18-17.81,1.35-6.28.4-12.19-1.84-18.13-2.48-6.56-4.27-13.36-6.85-19.88-3.25-8.24-1.77-16.73-1.38-25,.27-5.91,3.2-11.7,4.85-17.57,1.87-6.68,3.34-13.47,5.56-20A30.59,30.59,0,0,1,261.42,45c5.73-6.58,11.29-13.48,19.58-17.44,3.11-1.49,6-3.41,9.21-4.67,1.18-.47,3,.16,4.38.72,2.48,1,4,6.51,2.63,8.67a4.6,4.6,0,0,1-1,.83c5.4,4-.75,5.93-2.15,6.75-5.76,3.33-5.44,8.58-4.45,13.17,3.62,16.75,4.69,33.36,1.18,50.3-.91,4.4,1.13,9.34,1.52,14a141,141,0,0,1,.64,14.81C292.74,143.21,292.75,143.82,297.38,153.17Zm-31,9.29c3.37-3.2,6.29-5.14,8-7.79,3.7-5.65,5.54-12,4.52-18.75-1.58-10.42,1.17-20.18,5.44-29.35,4.47-9.59,5.31-19.43,4.71-29.52-.27-4.62-2-9.17-3.2-14.24l-4,3c-.88-.74-1.42-1.58-2-1.64-4.85-.4-9.71-.91-14.57-.86-2.59,0-6.44.33-7.49,1.9-1.91,2.87-2.24,6.76-3.08,10.26-1.16,4.84-1.94,9.78-3.29,14.57-4,14.28-3.48,28.07,3.14,41.69,2.88,5.92,4.44,12.43,6.74,18.63C262.64,154,264.26,157.45,266.36,162.46ZM321.86,68c0,7.6,0,15.86,0,24.12a14.86,14.86,0,0,0,.62,4.4c2.7,8.52,5.66,17,8.18,25.53a23.55,23.55,0,0,1,1.09,9.71,35.08,35.08,0,0,0,4.68,23.74,10.38,10.38,0,0,0,8.62,5.41c.73-2.09,1.38-4,2.08-6q2.82-7.8,5.67-15.6c2.39-6.54,5.17-13,7.11-19.62,2.61-8.93,1.94-17.92-.66-26.86-.88-3-.66-6.32-1.32-9.41a89.08,89.08,0,0,0-3.09-11.1,90.93,90.93,0,0,0-4.08-8.64c-4.54-.14-10.61,3.51-16-1.24-.3-.26-1.39.15-2,.44C329.38,64.44,326,66.05,321.86,68ZM306.61,269.81l1.33,0c0-2,0-4,0-6.07-.14-5.67-.61-11.34-.41-17,.36-10.07,1.68-20.14,1.51-30.19-.12-7.64-1.91-15.25-3-22.87l-1.91-.08c-.65,2.77-.77,5.8-2.07,8.25-3,5.58-1.58,11.36-1.17,17s2.69,11.26,3.31,17c.84,7.66.83,15.4,1.29,23.1C305.75,262.51,306.24,266.16,306.61,269.81ZM277.72,352a23.87,23.87,0,0,0-1.23,2.44c-1.06,2.72-3.37,5.75-2.82,8.14,1.28,5.55,4.44,10.45,11,11.63a32.41,32.41,0,0,0,6.07,0c-.53-2.2-.52-4.73-1.71-6.52-1.71-2.58-4.28-4.63-6.56-7l5.12-4.13Zm42.83,22.49c7.53,2.2,12.91-2.16,16.92-10.1,1.51-3-2-9.93-5.26-11.74l-8.31,4.13c5.66,3.74,5.87,4.42.86,8.69C321.78,368,319.32,370.35,320.55,374.52ZM334.31,286l-1.25.32c3.77,14.34-1.9,28.05-2.44,42.71,1.14-.75,2.18-1.07,2.29-1.58.64-3,.59-6.17,1.66-9,2.07-5.46,1.36-11.73,6.4-16.49,1.75-1.65,1.31-6.76.15-9.64C340.07,289.75,336.67,288.06,334.31,286Zm-9.14-12.12,1.43.22c.88-3.56,2.14-7.08,2.51-10.68.33-3.23-.73-6.58-.45-9.82.44-5.09,1.5-10.14,2.3-15.21.54-3.44,1.18-6.87,1.56-10.33a59.55,59.55,0,0,0,0-6.41,8.92,8.92,0,0,0-2.91,3.68c-3.72,6.43-2.81,13.58-3.4,20.48-.74,8.68-1.33,17.38-1.91,26.08C324.3,272.51,324.88,273.2,325.17,273.86ZM269.9,170.29c.55.42.83.79,1,.75,6.31-1.46,12.69-2.73,18.89-4.54,4.59-1.34,6.24-4.52,5.38-9.29L288,162.42l-.82-.73,3-5.35-.65-.45Zm45.67-12.73c-.59,6.17,2.61,9.49,7.94,9.52a15.46,15.46,0,0,1,4.24.53c4.1,1.2,8.15,2.57,13.56,4.31l-19.94-16.5-.55.55,3.19,6.48ZM284.36,277.37,286,277c0-3.83.16-7.66,0-11.47-.25-4.87-1.2-9.74-1.06-14.58.12-4.19-1.18-6.08-5.71-6.27-1.94-.08-1.8,0-1.13,1.79,2.47,6.75,5.8,13.28,4.66,21C282.27,270.62,283.76,274.05,284.36,277.37ZM275.76,310c.62-8.55,1.19-16.24,1.78-24.35-1.94,1.65-3.71,3.05-5.35,4.59-1.2,1.12-3.09,2.39-3.15,3.66C268.74,300,272.1,304.79,275.76,310Zm82.4-99.65.49-1.3c-3-1.18-6.45-1.81-8.85-3.7s-4-5.16-6.2-8.15a42.21,42.21,0,0,1-1.82,3.94c-2.4,3.9-1.47,5.46,3.32,6.29C349.49,208.14,353.81,209.32,358.16,210.31Zm-104.52-1.45.77,1c4.76-.91,9.54-1.72,14.24-2.85a3.26,3.26,0,0,0,1.64-2.78,43.69,43.69,0,0,0-2.18-6.48l-1.14-.86C265.58,204.15,259.25,206.12,253.64,208.86Zm71.1,89.21h.91V284.41l-.91-.05Zm1.61-96.64v8.28C331.13,206.12,331.1,204.9,326.35,201.43Z" transform="translate(-213.23)"/><path class="cls-1" d="M299,148c-.41-5.28-1.38-10.74-1.11-16.14.4-7.89-1.93-15.33-2.72-23-.5-5,1.14-10.1,1.42-15.18A196.82,196.82,0,0,0,297,72.24c-.39-7-2.07-13.94-2.73-20.95-.71-7.53,2.32-11,10-12.51,4.56-.89,12.73,4.95,12.26,9.32-.79,7.29-2.6,14.48-3.38,21.77A99.29,99.29,0,0,0,313,86.14c.36,6.33,1.67,12.62,1.86,19,.13,4.23-1,8.5-1.51,12.76a34.85,34.85,0,0,0-.47,4.43c0,6.18.14,12.36.15,18.54s-1.86,7.84-8.08,7.19C303.43,147.85,301.88,148,299,148Z" transform="translate(-213.23)"/><path d="M266.36,162.46c-2.1-5-3.72-8.5-5.05-12.09-2.3-6.2-3.86-12.71-6.74-18.63-6.62-13.62-7.17-27.41-3.14-41.69,1.35-4.79,2.13-9.73,3.29-14.57.84-3.5,1.17-7.39,3.08-10.26,1.05-1.57,4.9-1.87,7.49-1.9,4.86,0,9.72.46,14.57.86.6.06,1.14.9,2,1.64l4-3c1.19,5.07,2.93,9.62,3.2,14.24.6,10.09-.24,19.93-4.71,29.52-4.27,9.17-7,18.93-5.44,29.35,1,6.74-.82,13.1-4.52,18.75C272.65,157.32,269.73,159.26,266.36,162.46Z" transform="translate(-213.23)"/><path d="M321.86,68c4.12-1.93,7.52-3.54,10.95-5.1.63-.29,1.72-.7,2-.44,5.35,4.75,11.42,1.1,16,1.24a90.93,90.93,0,0,1,4.08,8.64A89.08,89.08,0,0,1,358,83.42c.66,3.09.44,6.4,1.32,9.41,2.6,8.94,3.27,17.93.66,26.86-1.94,6.66-4.72,13.08-7.11,19.62q-2.85,7.8-5.67,15.6c-.7,1.94-1.35,3.89-2.08,6a10.38,10.38,0,0,1-8.62-5.41,35.08,35.08,0,0,1-4.68-23.74,23.55,23.55,0,0,0-1.09-9.71c-2.52-8.57-5.48-17-8.18-25.53a14.86,14.86,0,0,1-.62-4.4C321.83,83.84,321.86,75.58,321.86,68Z" transform="translate(-213.23)"/><path d="M306.61,269.81c-.37-3.65-.86-7.3-1.09-11-.46-7.7-.45-15.44-1.29-23.1-.62-5.71-2.89-11.27-3.31-17s-1.8-11.37,1.17-17c1.3-2.45,1.42-5.48,2.07-8.25l1.91.08c1.05,7.62,2.84,15.23,3,22.87.17,10-1.15,20.12-1.51,30.19-.2,5.65.27,11.32.41,17,.05,2,0,4.05,0,6.07Z" transform="translate(-213.23)"/><path d="M277.72,352l9.89,4.56-5.12,4.13c2.28,2.35,4.85,4.4,6.56,7,1.19,1.79,1.18,4.32,1.71,6.52a32.41,32.41,0,0,1-6.07,0c-6.58-1.18-9.74-6.08-11-11.63-.55-2.39,1.76-5.42,2.82-8.14A23.87,23.87,0,0,1,277.72,352Z" transform="translate(-213.23)"/><path d="M320.56,374.52c-1.24-4.17,1.22-6.49,4.2-9,5-4.27,4.8-4.95-.86-8.69l8.31-4.13c3.22,1.81,6.77,8.75,5.26,11.74C333.46,372.36,328.08,376.72,320.56,374.52Z" transform="translate(-213.23)"/><path d="M334.31,286c2.36,2.08,5.76,3.77,6.81,6.34,1.16,2.88,1.6,8-.15,9.64-5,4.76-4.33,11-6.4,16.49-1.07,2.81-1,6-1.66,9-.11.51-1.15.83-2.29,1.58.54-14.66,6.21-28.37,2.44-42.71Z" transform="translate(-213.23)"/><path d="M325.17,273.86c-.29-.66-.87-1.35-.83-2,.58-8.7,1.17-17.4,1.91-26.08.59-6.9-.32-14,3.4-20.48a8.92,8.92,0,0,1,2.91-3.68,59.55,59.55,0,0,1,0,6.41c-.38,3.46-1,6.89-1.56,10.33-.8,5.07-1.86,10.12-2.3,15.21-.28,3.24.78,6.59.45,9.82-.37,3.6-1.63,7.12-2.51,10.68Z" transform="translate(-213.23)"/><path d="M269.9,170.29l19.58-14.4.65.45-3,5.35.82.73,7.19-5.21c.86,4.77-.79,7.95-5.38,9.29-6.2,1.81-12.58,3.08-18.89,4.54C270.73,171.08,270.45,170.71,269.9,170.29Z" transform="translate(-213.23)"/><path d="M315.57,157.56l8.44,4.89L320.82,156l.55-.55,19.94,16.5c-5.41-1.74-9.46-3.11-13.56-4.31a15.46,15.46,0,0,0-4.24-.53C318.18,167.05,315,163.73,315.57,157.56Z" transform="translate(-213.23)"/><path d="M284.36,277.37c-.6-3.32-2.09-6.75-1.62-9.92,1.14-7.68-2.19-14.21-4.66-21-.67-1.83-.81-1.87,1.13-1.79,4.53.19,5.83,2.08,5.71,6.27-.14,4.84.81,9.71,1.06,14.58.2,3.81,0,7.64,0,11.47Z" transform="translate(-213.23)"/><path d="M275.76,310c-3.66-5.17-7-10-6.72-16.1.06-1.27,1.95-2.54,3.15-3.66,1.64-1.54,3.41-2.94,5.35-4.59C277,293.72,276.38,301.41,275.76,310Z" transform="translate(-213.23)"/><path d="M358.16,210.31c-4.35-1-8.67-2.17-13.06-2.92-4.79-.83-5.72-2.39-3.32-6.29a42.21,42.21,0,0,0,1.82-3.94c2.18,3,3.68,6.17,6.2,8.15s5.86,2.52,8.85,3.7Z" transform="translate(-213.23)"/><path d="M253.64,208.86c5.61-2.74,11.94-4.71,13.33-12l1.14.86a43.69,43.69,0,0,1,2.18,6.48,3.26,3.26,0,0,1-1.64,2.78c-4.7,1.13-9.48,1.94-14.24,2.85Z" transform="translate(-213.23)"/><path d="M324.74,298.07V284.36l.91.05v13.66Z" transform="translate(-213.23)"/><path d="M326.35,201.43c4.75,3.47,4.78,4.69,0,8.28Z" transform="translate(-213.23)"/></svg>